<svg version="1.2" xmlns="http://www.w3.org/2000/svg" viewBox="0 0 371 97" width="371" height="97"><style>.a{fill:#5d17ea}.b{fill:#111}</style><path fill-rule="evenodd" class="a" d="m66.7 3.7c5.9 2.4 11.2 6 15.7 10.5 4.5 4.4 8 9.8 10.5 15.6 2.4 5.9 3.6 12.1 3.7 18.5 0 19.5-11.8 37.1-29.8 44.6-18.1 7.4-38.9 3.3-52.7-10.5-13.8-13.8-17.9-34.6-10.4-52.6 7.4-18 25.1-29.8 44.6-29.8 6.3 0 12.6 1.3 18.4 3.7zm-2.3 83.6c5.2-2.1 9.8-5.2 13.7-9.2 4-3.9 7.1-8.5 9.2-13.7 2.1-5.1 3.2-10.6 3.2-16.1 0-17.1-10.3-32.5-26.1-39.1-15.7-6.5-33.9-2.9-46 9.2-12.1 12.1-15.7 30.3-9.2 46 6.6 15.8 22 26.1 39.1 26.1 5.5 0 11-1.1 16.1-3.2z"/><path class="a" d="m45.9 21.7h4.8v4.8h-4.8z"/><path fill-rule="evenodd" class="a" d="m74.9 21.7v19.3h-19.4v-19.3zm-4.8 4.9h-9.7v9.6h9.7z"/><path class="a" d="m21.7 45.9h4.8v4.8h-4.8z"/><path fill-rule="evenodd" class="a" d="m21.7 41v-19.3h19.3v19.3zm4.9-4.8h9.7v-9.7h-9.7z"/><path class="a" d="m31.4 45.9h4.8v4.8h-4.8z"/><path fill-rule="evenodd" class="a" d="m41 55.5v19.4h-19.3v-19.4zm-4.8 4.9h-9.7v9.6h9.7z"/><path class="a" d="m41 45.9h4.9v4.8h-4.9z"/><path class="a" d="m45.9 31.4h4.8v14.5h-4.8z"/><path class="a" d="m55.5 55.5h4.9v-4.8h-4.9v-4.8h-4.8v4.8h-4.8v4.8h4.8v4.9h-4.8v14.5h4.8v-9.7h4.8v-9.7z"/><path class="a" d="m55.5 74.9h9.7v-4.9h-4.8v-4.8h-4.9v9.7z"/><path class="a" d="m60.4 45.9h4.8v4.8h-4.8z"/><path class="a" d="m65.2 60.4h-4.8v4.8h9.6v-4.8h4.9v-4.9h-4.9v-4.8h-4.8v9.7z"/><path class="a" d="m70 45.9h4.9v4.8h-4.9z"/><path class="a" d="m70 70h4.9v4.9h-4.9z"/><path fill-rule="evenodd" class="b" d="m154.2 18.2v9.2h-26.3v10.7h24.2v8.5h-24.2v12.2h26.9v9.2h-37.8v-49.8zm21.7 12.7q7.2 0 11.3 3 4.1 2.9 4.6 8.6h-9.4q-0.2-2.6-1.9-3.8-1.7-1.1-4.9-1.1-2.8 0-4.1 0.8-1.4 0.8-1.4 2.5 0 1.3 0.9 2.1 0.9 0.9 2.8 1.5 1.8 0.6 4 1 6.8 1.4 9.6 2.7 2.8 1.4 4.1 3.4 1.3 1.9 1.3 4.8 0 6.1-4.5 9.3-4.4 3.3-12 3.3-7.9 0-12.4-3.5-4.4-3.4-4.5-9.2h9.4q0 2.8 2.1 4.4 2.2 1.6 5.5 1.6 2.8 0 4.6-1.2 1.9-1.2 1.9-3.4 0-1.4-1.2-2.3-1.1-0.9-3.2-1.6-2.1-0.7-6.5-1.6-3.5-0.7-6.2-1.9-2.7-1.1-4.2-3.1-1.4-1.9-1.4-4.7 0-3.5 1.7-6.2 1.7-2.6 5.2-4 3.6-1.4 8.8-1.4zm37.4 0q7.3 0 11.4 3 4.1 2.9 4.5 8.6h-9.4q-0.2-2.6-1.9-3.8-1.6-1.1-4.8-1.1-2.8 0-4.2 0.8-1.3 0.8-1.3 2.5 0 1.3 0.9 2.1 0.9 0.9 2.7 1.5 1.9 0.6 4.1 1 6.8 1.4 9.6 2.7 2.7 1.4 4 3.4 1.3 1.9 1.3 4.8 0 6.1-4.4 9.3-4.4 3.3-12 3.3-8 0-12.4-3.5-4.4-3.4-4.6-9.2h9.4q0 2.8 2.2 4.4 2.2 1.6 5.4 1.6 2.8 0 4.7-1.2 1.8-1.2 1.8-3.4 0-1.4-1.1-2.3-1.2-0.9-3.3-1.6-2.1-0.7-6.5-1.6-3.5-0.7-6.2-1.9-2.7-1.1-4.1-3.1-1.4-1.9-1.4-4.7 0-3.5 1.7-6.2 1.7-2.6 5.2-4 3.5-1.4 8.7-1.4zm29.1 1l8.2 24.7h0.1l7.9-24.7h10.3l-15.1 40.6q-1.6 4.3-4.4 6.2-2.9 2-7.9 2-2.1 0-6.2-0.4v-8.1q2.7 0.3 5.2 0.3 2.1 0 3.3-1.3 1.1-1.3 1.1-3.2 0-1.1-0.4-2.2l-12.7-33.9c0 0 10.6 0 10.6 0zm53.2-14.9q11.1 0 17.8 7.4 6.7 7.4 6.7 18.9 0 10.9-6.5 18.3l6.2 5.7-5.1 5.4-7.1-6.5q-5.1 3-12 3-11 0-17.8-7.4-6.7-7.3-6.7-18.5 0-11.6 6.7-18.9 6.7-7.4 17.8-7.4zm-13.6 26.3q0 7.6 3.6 12.1 3.6 4.6 10 4.6 3.6 0 4.4-0.7l-4.7-4.3 5.1-5.4 5.6 5.1q3.1-3.9 3.1-11.4 0-8-3.6-12.5-3.7-4.6-10-4.6-6.2 0-9.8 4.5-3.7 4.6-3.7 12.6zm72.4-25.1q6.2 0 10.4 3.9 4.1 3.8 4.1 9.8 0 9.4-7.8 12.5v0.1q2.6 0.8 4.1 2.6 1.5 1.8 2.3 4.1 0.7 2.4 1 7.6 0.2 6.9 1.9 9.2h-10.9q-1-2.3-1.4-8.7-0.6-6.7-2.5-8.7-1.9-2.1-6.1-2.1h-11v19.5h-11v-49.8c0 0 26.9 0 26.9 0zm-3.9 22.5q3.5 0 5.5-1.6 2-1.5 2-5.5 0-3.8-2-5.3-1.9-1.6-5.5-1.6h-12v14z"/></svg>